FOR ENGLISH, PLEASE SCROLL DOWN!

[IMG]http://image.bayimg.com/haajnaadi.jpg[/IMG]
[IMG]http://image.bayimg.com/haajoaadi.jpg[/IMG]
~~~~~~~~~~~~~~~~~~~~~~~~~~~~~~~~~~~~~~~~~~~~~~~~~~~~~~~~~
Fringe - Seizoen 3

Verenigde Staten/ Canada - afleveringen duren ongeveer 50 minuten. Gecreëerd door J.J. Abrams & Alex Kurtzman. Met o.a.Anna Torv, Joshua Jackson, Lance Reddick, Blair Brown, Jasika Nicole, John Noble & Kirk Acevedo. Meer informatie kun je vinden op http://www.imdb.com/title/tt1119644/

~~~~~~~~~~~~~~~~~~~~~~~~~~~~~~~~~~~~~~~~~~~~~~~~~~~~~~~~~
VERHAALLIJN:
¯¯¯¯¯¯¯¯¯¯¯¯
De reeks draait rond FBI agente Olivia Dunham, de verwarde maar geniale professor Dr. Walter Bishop en zijn zoon Peter, die worden belast met een aantal vreemde zaken die over de hele wereld gebeuren. Al die vreemde gebeurtenissen zijn blijkbaar op de een of andere manier aan elkaar gelinkt: er is duidelijk 'een patroon' te herkennen dat over alle zaken heen loopt. Het patroon kan tevens gelinkt worden aan Massive Dynamic, een firma die een aantal patenten houdt op een aantal nieuwe technologieën en enkele mysterieuze onderzoeken doet. Alle zaken draaien rond Fringe science, een tak van de wetenschap die zeer speculatief en omstreden is. Voorbeelden van deze tak van de wetenschap zijn levitatie, telepathie  en onzichtbaarheid.
~~~~~~~~~~~~~~~~~~~~~~~~~~~~~~~~~~~~~~~~~~~~~~~~~~~~~~~~~
Ondertitelingen: Engels & Nederlands - custom (eventueel selecteren via je mediaspeler)
Menu: Nee.
Covers: Nee.
Genre : Drama | Horror | Mysterie | Sci-Fi | Thriller.

IMDb: http://www.imdb.com/title/tt1119644/
Officiële website: http://www.fox.com/fringe/

~~~~~~~~~~~~~~~~~~~~~~~~~~~~~~~~~~~~~~~~~~~~~~~~~~~~~~~~~
Fringe - Season 3

United States/ Canada - episodes last approx. 50 minutes. Created by J.J. Abrams & Alex Kurtzman. With Anna Torv, Joshua Jackson, Lance Reddick, Blair Brown, Jasika Nicole, John Noble & Kirk Acevedo. More information can be found at http://www.imdb.com/title/tt1119644/

~~~~~~~~~~~~~~~~~~~~~~~~~~~~~~~~~~~~~~~~~~~~~~~~~~~~~~~~~
PLOT:
¯¯¯¯¯
All over the world, a series of apparent experiments collectively referred to as "The Pattern" (e.g., a newborn baby who rapidly ages and dies within a few minutes; a bus full of passengers trapped in a strange resin, like mosquitoes trapped in amber) are occurring for reasons unknown. Olivia, Peter, and Walter are in charge of investigating these strange events to determine their source. Connected to the Pattern is 'Massive Dynamic', a megacorporation which is a leading global technology company, holding the patents for a diverse number of new and significant technologies. Their enemy is ZFT (Zerstörung durch Fortschritte der Technologie, en: Destruction through advances in technology), a bioterrorist organization which is orchestrating all of the strange occurrences in order to prepare for a destructive technological singularity. Tying both sides together is a nootropic  drug, called Cortexiphan, that was developed by Walter and his partner, William Bell (now chairman of Massive Dynamic), which Olivia and a number of others were treated with as children. Events also reveal to the viewer that a tragedy had occurred to Peter, and only Walter has knowledge of this. The first season closes with Olivia meeting William in a parallel universe where, among other differences, the World Trade Center has not been destroyed.

~~~~~~~~~~~~~~~~~~~~~~~~~~~~~~~~~~~~~~~~~~~~~~~~~~~~~~~~~
Subtiteles: English and Dutch - custom (eventueel selecteren via je mediaspeler)
Menu: No
Covers: No.
Genre : Drama | Horror | Mystery | Sci-Fi | Thriller.

IMDb: http://www.imdb.com/title/tt1119644/
Official website: http://www.fox.com/fringe/

~~~~~~~~~~~~~~~~~~~~~~~~~~~~~~~~~~~~~~~~~~~~~~~~~~~~~~~~~
VIDEO AND AUDIO INFORMATION
¯¯¯¯¯¯¯¯¯¯¯¯¯¯¯¯¯¯¯¯¯¯¯¯¯¯¯¯¯¯
Video
ID                               : 1
Format                           : AVC
Format/Info                      : Advanced Video Codec
Format profile                   : High@L4.1
Format settings, CABAC           : Yes
Format settings, ReFrames        : 8 frames
Format settings, GOP             : M=3, N=32
Muxing mode                      : Container profile=Unknown@4.1
Codec ID                         : V_MPEG4/ISO/AVC
Duration                         : 43mn 13s
Bit rate                         : 3 169 Kbps
Width                            : 1 280 pixels
Height                           : 720 pixels
Display aspect ratio             : 16:9
Frame rate                       : 23.976 fps
Color space                      : YUV
Chroma subsampling               : 4:2:0
Bit depth                        : 8 bits
Scan type                        : Progressive
Bits/(Pixel*Frame)               : 0.143
Stream size                      : 958 MiB (86%)
Writing library                  : x264 core 107 r1745 4785e8e
Encoding settings                : cabac=1 / ref=8 / deblock=1:-2:-2 / analyse=0x3:0x113 / me=umh / subme=9 / psy=1 / psy_rd=1.00:0.00 / mixed_ref=1 / me_range=16 / chroma_me=1 / trellis=1 / 8x8dct=1 / cqm=0 / deadzone=21,11 / fast_pskip=1 / chroma_qp_offset=-2 / threads=6 / sliced_threads=0 / nr=0 / decimate=1 / interlaced=0 / constrained_intra=0 / bframes=5 / b_pyramid=2 / b_adapt=1 / b_bias=0 / direct=1 / weightb=1 / open_gop=0 / weightp=2 / keyint=250 / keyint_min=23 / scenecut=40 / intra_refresh=0 / rc_lookahead=40 / rc=2pass / mbtree=1 / bitrate=3169 / ratetol=1.0 / qcomp=0.60 / qpmin=10 / qpmax=51 / qpstep=4 / cplxblur=20.0 / qblur=0.5 / ip_ratio=1.40 / aq=1:1.00
Language                         : English

Audio
ID                               : 2
Format                           : AC-3
Format/Info                      : Audio Coding 3
Mode extension                   : CM (complete main)
Codec ID                         : A_AC3
Duration                         : 43mn 13s
Bit rate mode                    : Constant
Bit rate                         : 448 Kbps
Channel(s)                       : 6 channels
Channel positions                : Front: L C R, Side: L R, LFE
Sampling rate                    : 48.0 KHz
Bit depth                        : 16 bits
Stream size                      : 138 MiB (12%)

*****************************************
Brought to you by RHoek aka Ren Höek
******************************************